<?xml version="1.0" encoding="UTF-8"?>
<svg id="Layer_2" data-name="Layer 2" xmlns="http://www.w3.org/2000/svg" viewBox="0 0 519.7 143.41">
  <defs>
    <style>
      .cls-1, .cls-2 {
        fill: #d85c8a;
      }

      .cls-3 {
        letter-spacing: .13em;
      }

      .cls-2 {
        font-family: NunitoSans-SemiBold, 'Nunito Sans';
        font-size: 14.2px;
        font-variation-settings: 'wght' 600, 'wdth' 100, 'opsz' 12, 'YTLC' 500;
        font-weight: 600;
      }

      .cls-4 {
        letter-spacing: 0em;
      }

      .cls-5 {
        letter-spacing: .1em;
      }

      .cls-6 {
        letter-spacing: .1em;
      }

      .cls-7 {
        letter-spacing: .1em;
      }

      .cls-8 {
        letter-spacing: .12em;
      }

      .cls-9 {
        letter-spacing: .12em;
      }

      .cls-10 {
        letter-spacing: .11em;
      }

      .cls-11 {
        letter-spacing: .11em;
      }

      .cls-12 {
        letter-spacing: .12em;
      }

      .cls-13 {
        letter-spacing: .12em;
      }

      .cls-14 {
        letter-spacing: .04em;
      }
    </style>
  </defs>
  <g id="_04_Logos" data-name="04 Logos">
    <g>
      <path class="cls-1" d="M89.58,92.29s-1.28,4.39-7.91,7.7c-2.73,1.37-6.42,1.89-9.94,1.89-5.51,0-10.46-1.74-14.92-3.98-4.46-2.24-7.99-5.58-10.6-10.01-2.61-4.43-3.92-9.85-3.92-16.27,0-4.88.79-9.17,2.38-12.86,1.59-3.69,3.76-6.79,6.52-9.28.42-.38.84-.74,1.28-1.09.71-.57,1.44-1.1,2.2-1.59.92-.6,1.88-1.15,2.88-1.63.58-.28,1.17-.54,1.77-.79.46-.19.93-.36,1.41-.53,1.63-.56,3.3-1,5.01-1.31h0c1.6-.29,3.24-.46,4.92-.53.5-.02,1.01-.03,1.52-.03,3.24,0,6.22.37,8.94,1.11,1.69.46,3.32,1.03,4.88,1.71.72.31,1.42.64,2.11,1,.23.11.45.23.67.35l.34,10.48h-.85l-4.26-6.81c-.57-1.08-1.19-2.06-1.87-2.94-.37-.48-.79-.89-1.26-1.24-.38-.28-.79-.53-1.23-.73l-.06-.03c-.85-.4-1.69-.7-2.51-.89-.82-.2-1.86-.3-3.11-.3h-.15c-.53,0-1.06.03-1.59.09-2.62.26-5.03,1.11-7.25,2.56-2.7,1.76-4.85,4.67-6.47,8.73-1.62,4.06-2.43,9.61-2.43,16.65s.77,12.51,2.3,16.57c1.53,4.06,3.62,6.96,6.26,8.69,2.64,1.73,5.61,2.6,8.9,2.6,1.82,0,3.27-.13,4.34-.38,1.08-.26,2.16-.64,3.24-1.15,2.91-1.35,6.37-4.05,8.45-5.74Z"/>
      <path class="cls-1" d="M94.33,99.74v-.85l1.02-.34c1.83-.61,3.07-2.33,3.07-4.26v-45.48c0-1.19-.2-2.07-.6-2.64-.4-.57-1.16-.99-2.3-1.28l-1.28-.34v-.85l14.99-3.66,1.36.77-.34,12.01v10.65c1.99-1.65,4.13-3.05,6.43-4.22,2.3-1.16,4.84-1.75,7.62-1.75,3.69,0,6.63,1.05,8.82,3.15,2.19,2.1,3.28,5.34,3.28,9.71v24.02c0,1.14.23,2.04.68,2.73.45.68,1.25,1.19,2.38,1.53l.68.26v.85h-19.93v-.85l1.02-.26c2.04-.68,3.07-2.13,3.07-4.34v-26.74c0-2.27-.38-3.83-1.15-4.68s-2.12-1.28-4.05-1.28c-1.25,0-2.61.24-4.09.72-1.48.48-2.98,1.32-4.51,2.51v29.64c0,2.21,1.02,3.63,3.07,4.26l.68.17v.85h-19.93Z"/>
      <path class="cls-1" d="M155.83,101.02c-3.29,0-6.06-.94-8.3-2.81-2.24-1.87-3.36-4.57-3.36-8.09,0-2.67,1.36-5.12,4.09-7.37,2.73-2.24,7.01-3.93,12.86-5.07.91-.17,1.93-.35,3.07-.55,1.14-.2,2.33-.41,3.58-.64v-6.73c0-3.86-.47-6.57-1.41-8.13-.94-1.56-2.4-2.34-4.39-2.34-1.36,0-2.44.44-3.24,1.32-.8.88-1.31,2.4-1.53,4.56l-.17.94c-.11,2.44-.71,4.23-1.79,5.37-1.08,1.14-2.41,1.7-4,1.7-1.48,0-2.7-.45-3.66-1.36-.97-.91-1.45-2.13-1.45-3.66,0-2.33.81-4.29,2.43-5.88,1.62-1.59,3.76-2.78,6.43-3.58,2.67-.79,5.56-1.19,8.69-1.19,5.05,0,8.96,1.24,11.71,3.71,2.75,2.47,4.13,6.49,4.13,12.05v18.82c0,2.56,1.19,3.83,3.58,3.83h1.87l.77.68c-1.08,1.36-2.26,2.41-3.53,3.15-1.28.74-3.08,1.11-5.41,1.11-2.5,0-4.47-.58-5.92-1.75-1.45-1.16-2.4-2.71-2.85-4.64-1.7,1.82-3.45,3.36-5.24,4.64-1.79,1.28-4.1,1.92-6.94,1.92ZM161.92,95.76c.88-.12,1.73-.42,2.51-.86.95-.54,2.06-1.34,3.32-2.4v-14.31s-.04-.03-.08-.06c-.8.26-1.99.5-3.58.74-2.61.68-4.7,1.83-6.26,3.45-1.56,1.62-2.34,3.79-2.34,6.52,0,2.33.54,4.08,1.62,5.24,1.28,1.39,2.89,1.95,4.82,1.68Z"/>
      <path class="cls-1" d="M187.77,99.74v-.85l1.19-.34c1.99-.57,2.98-1.96,2.98-4.17v-26.66c0-1.25-.2-2.17-.6-2.77-.4-.6-1.16-1.01-2.3-1.23l-1.28-.34v-.85l14.56-4.94.85.85.68,5.11c1.99-1.76,4.23-3.21,6.73-4.34,2.5-1.14,4.97-1.7,7.41-1.7,3.75,0,6.63,1.02,8.65,3.07,2.01,2.04,3.02,5.17,3.02,9.37v24.53c0,2.21,1.08,3.61,3.24,4.17l.77.26v.85h-20.1v-.85l1.11-.34c1.99-.62,2.98-2.01,2.98-4.17v-27.17c0-2.77-2.07-5.19-4.83-5.42-2.67-.23-5.6,1.01-8.8,3.72v28.96c0,2.21.99,3.61,2.98,4.17l.77.26v.85h-20.02Z"/>
      <path class="cls-1" d="M249.35,101.02c-3.29,0-6.06-.94-8.3-2.81-2.24-1.87-3.36-4.57-3.36-8.09,0-2.67,1.36-5.12,4.09-7.37,2.73-2.24,7.01-3.93,12.86-5.07.91-.17,1.93-.35,3.07-.55,1.14-.2,2.33-.41,3.58-.64v-6.73c0-3.86-.47-6.57-1.41-8.13-.94-1.56-2.4-2.34-4.39-2.34-1.36,0-2.44.44-3.24,1.32-.8.88-1.31,2.4-1.53,4.56l-.17.94c-.11,2.44-.71,4.23-1.79,5.37-1.08,1.14-2.41,1.7-4,1.7-1.48,0-2.7-.45-3.66-1.36-.97-.91-1.45-2.13-1.45-3.66,0-2.33.81-4.29,2.43-5.88,1.62-1.59,3.76-2.78,6.43-3.58,2.67-.79,5.56-1.19,8.69-1.19,5.05,0,8.96,1.24,11.71,3.71,2.75,2.47,4.13,6.49,4.13,12.05v18.82c0,2.56,1.19,3.83,3.58,3.83h1.87l.77.68c-1.08,1.36-2.26,2.41-3.53,3.15-1.28.74-3.08,1.11-5.41,1.11-2.5,0-4.47-.58-5.92-1.75-1.45-1.16-2.4-2.71-2.85-4.64-1.7,1.82-3.45,3.36-5.24,4.64-1.79,1.28-4.1,1.92-6.94,1.92ZM255.44,95.76c.88-.12,1.73-.42,2.51-.86.95-.54,2.06-1.34,3.32-2.4v-14.31s-.04-.03-.08-.06c-.8.26-1.99.5-3.58.74-2.61.68-4.7,1.83-6.26,3.45-1.56,1.62-2.34,3.79-2.34,6.52,0,2.33.54,4.08,1.62,5.24,1.28,1.39,2.89,1.95,4.82,1.68Z"/>
      <path class="cls-1" d="M287.93,120.18c-2.27,0-4.08-.57-5.41-1.7-1.33-1.14-2-2.58-2-4.34,0-1.59.57-2.87,1.7-3.83,1.14-.97,2.41-1.45,3.83-1.45s2.61.3,3.58.89c.96.6,1.82,1.46,2.56,2.6l.6.68c1.25,1.7,2.5,1.67,3.75-.09.51-.85,1.09-1.97,1.75-3.36.65-1.39,1.41-3.25,2.26-5.58l-16.52-39.52c-.4-1.08-.82-1.94-1.28-2.6-.46-.65-1.19-1.21-2.21-1.66l-1.53-.6v-.85h21.21v.77l-1.7.68c-1.25.4-1.89,1.04-1.92,1.92-.03.88.18,1.97.64,3.28l8.86,23,8.43-23.25c.45-1.31.62-2.4.51-3.28-.11-.88-.82-1.49-2.13-1.83l-1.79-.43v-.85h11.84v.85l-1.87.6c-1.31.4-2.21.97-2.73,1.7-.51.74-.99,1.76-1.45,3.07l-13.71,37.39c-2.21,5.96-4.43,10.42-6.64,13.37-2.21,2.95-5.08,4.43-8.6,4.43Z"/>
      <path class="cls-1" d="M336.65,101.02c-3.29,0-6.06-.94-8.3-2.81-2.24-1.87-3.36-4.57-3.36-8.09,0-2.67,1.36-5.12,4.09-7.37,2.73-2.24,7.01-3.93,12.86-5.07.91-.17,1.93-.35,3.07-.55,1.14-.2,2.33-.41,3.58-.64v-6.73c0-3.86-.47-6.57-1.41-8.13-.94-1.56-2.4-2.34-4.39-2.34-1.36,0-2.44.44-3.24,1.32-.8.88-1.31,2.4-1.53,4.56l-.17.94c-.11,2.44-.71,4.23-1.79,5.37-1.08,1.14-2.41,1.7-4,1.7-1.48,0-2.7-.45-3.66-1.36-.97-.91-1.45-2.13-1.45-3.66,0-2.33.81-4.29,2.43-5.88,1.62-1.59,3.76-2.78,6.43-3.58,2.67-.79,5.56-1.19,8.69-1.19,5.05,0,8.96,1.24,11.71,3.71,2.75,2.47,4.13,6.49,4.13,12.05v18.82c0,2.56,1.19,3.83,3.58,3.83h1.87l.77.68c-1.08,1.36-2.26,2.41-3.53,3.15-1.28.74-3.08,1.11-5.41,1.11-2.5,0-4.47-.58-5.92-1.75-1.45-1.16-2.4-2.71-2.85-4.64-1.7,1.82-3.45,3.36-5.24,4.64-1.79,1.28-4.1,1.92-6.94,1.92ZM342.75,95.76c.88-.12,1.73-.42,2.51-.86.95-.54,2.06-1.34,3.32-2.4v-14.31s-.04-.03-.08-.06c-.8.26-1.99.5-3.58.74-2.61.68-4.7,1.83-6.26,3.45-1.56,1.62-2.34,3.79-2.34,6.52,0,2.33.54,4.08,1.62,5.24,1.28,1.39,2.89,1.95,4.82,1.68Z"/>
      <path class="cls-1" d="M451.87,63.94l-1.35-.44c4.18-12.8,7.67-21.18,17.84-21.01,0,0-12.29,1.41-16.49,21.45Z"/>
      <path class="cls-1" d="M451.37,63.13l-1.4-.25c3.37-13.53-1.51-18.48-1.51-18.48,4.85,2.72,4.74,8.65,2.91,18.74Z"/>
      <path class="cls-1" d="M449.27,43.59c0,1.43-1.16,2.59-2.58,2.59s-2.59-1.16-2.59-2.59,1.16-2.58,2.59-2.58,2.58,1.16,2.58,2.58Z"/>
      <path class="cls-1" d="M470.51,45.37c-1.93,0-3.51-1.57-3.51-3.51s1.57-3.51,3.51-3.51,3.51,1.57,3.51,3.51-1.57,3.51-3.51,3.51ZM470.51,39.77c-1.15,0-2.09.94-2.09,2.09s.94,2.09,2.09,2.09,2.09-.94,2.09-2.09-.94-2.09-2.09-2.09Z"/>
      <g>
        <path class="cls-1" d="M447.92,33.25l-.14-.7c-1.08-5.37-7.04-8.72-13.27-7.46l-.7.14-.28-1.39.7-.14c7-1.41,13.71,2.43,14.94,8.57l.14.7-1.39.28Z"/>
        <path class="cls-1" d="M446.18,33.54c-2.56,0-5.04-.64-7.19-1.88-3.05-1.76-5.09-4.51-5.75-7.75l1.39-.28c.57,2.84,2.37,5.25,5.06,6.8,2.72,1.57,6.04,2.07,9.32,1.4l.28,1.39c-1.04.21-2.09.31-3.12.31Z"/>
      </g>
      <path class="cls-1" d="M67.24,42.4s0,.03.01.04c.01,0,.03-.01.04-.02-.02,0-.04-.01-.06-.02Z"/>
      <path class="cls-1" d="M453.92,50.86c-3.23-21.5-14-23.16-14-23.16,10.12.97,12.67,9.68,15.39,22.87l-1.39.29Z"/>
      <path class="cls-1" d="M462.15,32.17s-.26.72-.65,1.88c-1.52,4.44-4.25,12.01-4.59,12.92-.33.91-.67,2.03-1.01,3.28l-14.14,49.74h-5.88l-12.78-40.03-13.12,40.03h-5.88l-15.08-50.68c-.4-1.31-.82-2.26-1.28-2.85-.45-.6-1.25-1.15-2.38-1.66l-1.02-.43v-.85h22.57v.85l-1.79.68c-1.31.51-2.19,1.14-2.64,1.87s-.48,1.76-.09,3.07l9.28,35.43,10.05-29.73-1.96-6.05c-.4-1.19-.77-2.1-1.11-2.73-.34-.62-.91-1.14-1.7-1.53l-1.87-1.02v-.85h21.38v.85l-2.64,1.02c-1.14.4-1.77.98-1.92,1.75-.14.77-.01,1.75.38,2.94l10.82,36.2,10.22-35.52c.24-.82,1.54-4.88,3.47-10.86.24-.72.47-1.43.69-2.1.99-3.01,1.81-5.32,2.07-5.64h2.58Z"/>
      <path class="cls-1" d="M484.73,17.21c-.7-.94-2.11-1.08-3.26-.85.69-1.34,1.01-2.78.95-4.24-.04-.89-.26-1.71-.63-2.5-.33-.69-.77-1.28-1.33-1.8-.74-.67-1.59-1.19-2.54-1.54-.91-.33-1.85-.46-2.81-.34l-.8.17c-.58-2.16-1.97-4.47-4.05-5.42-1.83-.84-3.66-.84-5.59-.36-1.28.32-2.67,1.01-3.62,1.93l-.45-.21c-.82-.38-1.69-.63-2.62-.65-1.68-.04-3.35.58-4.59,1.7-1.6,1.45-2.05,3.7-1.72,5.77-1.75-1.06-3.96-1.23-5.47.2-.63.6-1.02,1.39-1.15,2.25-.27,1.71.21,3.54,1.02,5.06.25.46.53.86.86,1.27-.82,2.3-.85,4.88.05,7.17.86,2.19,2.42,4.02,4.37,5.33,1.46.97,2.97,1.5,4.7,1.79,1.09.19,2.15.23,3.25.13.11,0,.2.01.28.09h2.58s-.26.72-.65,1.88l.41.35c2.25,1.82,4.94,2.68,7.84,2.49,1.38-.09,2.71-.42,3.97-.98,1.09-.49,2.1-1.11,3-1.89l.49-.43c.61-.53,1.15-1.09,1.63-1.75.92-1.27,1.3-2.83.68-4.32,1.85-1.33,3.39-3.01,4.52-4.98.84-1.46,1.77-3.88.7-5.34ZM474.69,7.53c.06-.07.18-.11.27-.12.84-.16,1.67-.08,2.47.22.96.35,1.83.9,2.49,1.69,1.23,1.47,1.29,3.47.74,5.26-.81,2.48-2.82,4.48-5.18,5.58l.79-3.55.4-2.16c.25-1.37.09-2.74-.4-4.03-.19-.52-.45-.98-.73-1.46l-.83-1.12c-.05-.06-.06-.25,0-.3ZM474.63,10.32c.53.98.76,2.05.71,3.15-.02.58-.11,1.13-.33,1.67-.39,1-1.24,1.7-2.28,1.93-.99.21-1.94-.02-2.92-.34.8-.75,1.44-1.72,1.75-2.78,1.71-.41,3.03-1.84,3.08-3.62ZM474.52,18.03l-.44,1.79-.27.91c-2.55.57-5.15.61-7.69.02l-2.1-.61c2.45.11,5.1-.05,7.43-.74.79-.23,1.52-.54,2.26-.89l.82-.49ZM470.35,12.7l-.78.02c.22-.68.32-1.36.3-2.1.14.22.23.45.31.69.13.45.18.9.16,1.39ZM472.8,11.54c-.25.36-.59.64-1.03.82,0-1.45-.65-2.83-1.64-3.87-.77-.8-1.72-1.39-2.83-1.57-.97-.16-1.94.17-2.64.84-.54.52-.93,1.15-1.19,1.85-.27.73-.24,1.53.1,2.22.45.91,1.37,1.46,2.34,1.72,1.3.33,2.7.61,4.04.58-.27.65-.67,1.16-1.19,1.59-.17.14-.3.29-.51.39-1.94-.86-3.44-1.89-4.7-3.59-.41-.56-.74-1.13-.99-1.77-.38-.98-.52-2.16.04-3.08.66-1.05,1.96-1.62,3.15-1.88,1-.22,2-.18,2.98.1.91.27,1.73.69,2.47,1.28.89.71,1.58,1.67,1.87,2.78.15.56.06,1.11-.27,1.59ZM468.1,12.58c-.62-.08-1.19-.22-1.8-.38-.41-.11-.79-.24-1.11-.51-.45-.4-.57-1.05-.38-1.61.15-.47.42-.82.75-1.18.57-.63,1.51-.79,2.23-.29.23.26.38.56.49.89.29,1.02.25,2.1-.18,3.09ZM460.6,5.07c.45-.77,1.01-1.41,1.68-1.99.26-.22.51-.42.81-.58.47-.26.94-.51,1.46-.66l1.41-.32c.98-.16,1.97-.11,2.92.18.77.23,1.44.61,2,1.17.53.53.95,1.11,1.29,1.77l.49,1.07.38,1.27c-.52-.54-1.03-1.01-1.64-1.4-.96-.6-1.97-1.04-3.09-1.23-1.76-.29-3.55.02-5.1.88-1.51.84-2.52,2.26-2.45,4.03.07,1.64.86,3.19,1.87,4.45l.79.9c.89.9,1.89,1.64,3.02,2.24,1.17.63,2.36,1.11,3.63,1.46-1.94.38-3.9.53-5.88.42-1.23-.07-2.42-.25-3.59-.63-.47-.15-.9-.35-1.32-.59-.76-.43-1.37-1.06-1.72-1.85-.22-.5-.26-1.04-.18-1.58l.45-2c.22-.98.53-1.9.87-2.84.5-1.46,1.1-2.85,1.87-4.18ZM453.11,6.44c.15-.77.48-1.47,1-2.04.35-.38.7-.68,1.16-.91.57-.29,1.14-.54,1.78-.62,1.02-.13,2.04.05,2.99.46l-.44.62c-.69,1.08-1.23,2.22-1.71,3.42l-.48,1.32c-.53,1.46-.95,2.94-1.28,4.46l-.53-.77-.63-.79c-.48-.56-1.01-1.04-1.56-1.51l-.2-.75c-.25-.95-.28-1.92-.1-2.88ZM453.74,29.83c-.8-.34-1.53-.77-2.22-1.3-1.19-.9-2.14-2.05-2.84-3.37-.3-.58-.51-1.15-.68-1.77-.39-1.48-.39-3,.02-4.48l.36-1.15c.1-.32,0-.56-.2-.79-.97-1.16-1.59-2.53-1.76-4.03-.07-.57-.06-1.12.09-1.68.35-1.37,1.55-1.98,2.91-1.75.89.15,1.92.71,2.63,1.29.69.56,1.34,1.14,1.92,1.82.62.71,1.15,1.46,1.57,2.3.07.14.16.34.12.5-.78,3.76-.84,7.52.42,11.17.3.8.63,1.56,1.05,2.31.35.63.74,1.21,1.17,1.8-1.57,0-3.11-.27-4.56-.87ZM461.09,31.61c-.45-.43-.89-.84-1.28-1.32-.48-.6-.92-1.21-1.31-1.87-.69-1.2-1.18-2.46-1.5-3.8l-.33-1.76c-.09-.88-.16-1.72-.14-2.6.01-1,.11-1.95.23-2.93,1.19,1.11,2.45,2.06,3.85,2.84.9.5,1.81.93,2.78,1.27,2.34.85,4.69,1.25,7.18,1.15.92-.04,1.82-.11,2.73-.29l-.57,1.4c-.53,1.17-1.18,2.27-1.99,3.27-.53.68-1.13,1.27-1.79,1.84l-.79.61c-1.07.74-2.22,1.3-3.47,1.68-1.17.35-2.36.54-3.6.53ZM477.8,30.8c-.35.51-.73.98-1.2,1.39l-1.09.96c-.52.41-1.06.76-1.64,1.08-3.14,1.75-6.99,1.71-10.06-.21-.5-.31-.95-.63-1.38-1.06l1.48-.22c1.5-.28,2.91-.83,4.22-1.6l1.3-.86c.1-.03.27-.03.38-.02.59.06,1.15.05,1.75.03,2.35-.09,4.63-.74,6.69-1.96.32.79.01,1.79-.45,2.47ZM483.13,21.17c-.7,1.41-1.63,2.67-2.75,3.77l-1.22,1.07c-1.64,1.32-3.55,2.21-5.64,2.63-.85.16-1.66.24-2.55.24.78-.82,1.44-1.71,2.03-2.67.4-.63.73-1.26,1.03-1.94.35-.76.65-1.52.89-2.32,1.94-.74,3.53-1.79,4.94-3.31.14-.17.27-.32.47-.42.69-.33,1.44-.53,2.21-.55.57-.02,1.12.25,1.21.81.13.84-.26,1.9-.64,2.68Z"/>
      <path class="cls-1" d="M75.88,35.7l-.46-.96c-.34-.52-.82-1.05-1.39-1.41l-1.31-.82c-.68-.42-1.23-1.09-1.48-1.86l-.42-1.3c-.45-1.25-1.31-2.29-2.49-2.92-.86-.45-2-.42-2.92-.09-.82.3-1.54.75-2.18,1.35-1.1,1.04-2.03,2.23-2.77,3.55-.46.82-.84,1.63-1.16,2.51l-.8,2.24c-.34.95-.56,1.9-.79,2.88-.1.46-.19.89-.22,1.36-.27.06-.5.17-.71.33-.3.23-.59.42-.95.61.53.34.87.85.89,1.48-.44-.59-.96-1.27-1.68-1.15-.31.03-.59.17-.88.29-.42.18-.72.5-.88.92l-1.19-.76c-2.06-1.2-4.21-2.17-6.45-2.96-.72-.26-1.4-.49-2.14-.65-1.42-.31-2.85-.42-4.3-.36-.65.03-1.26.14-1.86.31l-1.18.56c-.74.35-1.23,1.06-1.48,1.83-.63,1.95.34,4.12,1.47,5.7.54.92.83,2.02.75,3.08-.07.72-.11,1.44-.1,2.19.05.53.18,1.04.38,1.53l.35.74c.05-.06.1-.04.14.02.91,1.47,2.33,2.83,4.05,3.24,1.59.39,3.26-.39,4.53-1.3,2.38-1.69,4.35-3.62,6.42-5.69.11-.11.24-.21.38-.3l.32-.34c-.05.15-.16.24-.24.34-.02.09-.05.18-.1.26-.48.75-1.17,1.5-1.78,2.16-.85.83-1.71,1.64-2.56,2.44-1.43,1.44-1.94,3.43-2,5.41,0,.05,0,.1-.02.15.27-1.76,1.46-3.37,2.77-4.52.72-.6,1.41-1.23,2.05-1.91.24-.19.31-.17.22.04-.45,1.52-.84,3.04-1.16,4.58-.32,1.3-4.49,17.2-5.25,18.3-1.07,1.53-2.65,3.34-3.58,4.04-.54.4-1.09.8-1.59,1.26-.78.71-.52,1.57-.02,2.38.02.11.05.12.09.02,1.62-.9,4.1-3.14,5.35-4.52,3.47-3.84,6.3-19.24,6.88-21.68l1.02-4.35c.61-2.54,1.62-5.09,2.81-7.32,1.12-.13,2.1-.68,2.98-1.36,1.44.38,2.93.78,4.43,1.29,1.9.65,7.17,3.84,8.75,5.08,2.28,1.79,4.18,4,5.59,6.39.03.06.04.13.04.19h.03c.01-2.87-1.33-5.34-3.42-7.26-.94-.84-5.69-3.96-6.81-4.61l1.72-.18c.97-.1,1.93-.12,2.9-.04.55.04,1.05.14,1.57.3.77.23,1.44.62,2.07,1.13l1.82,1.68,1.62,1.5c.61.52,1.26.95,1.98,1.35l-.14-2.6-1.75-1.51c-.71-.62-1.42-1.19-2.21-1.7-1.88-1.18-3.86-1.65-6.07-1.61l-1.31.08-1.95.14c1.97-.49,3.75-1.12,5.4-2.28.62-.44,1.16-.91,1.64-1.5,1.22-1.54,1.34-3.42.79-5.27-.02-.06-.11-.12-.05-.17ZM54.05,47.4c-.94,1.13-2.19,2.11-3.37,3.07l-4.55,3.67c-.83.67-1.89,1.44-2.88,1.71-1.37.38-2.49-.34-3.44-1.29-1.31-1.3-1.5-2.39-1.32-4.14.14-1.31.22-2.21-.2-3.52-.2-.62-.45-1.19-.71-1.8-.26-.61-.4-1.25-.39-1.91.03-1.28.87-2.16,2.03-2.65,1.14-.48,2.36-.61,3.58-.42,1.36.21,2.66.54,3.96.97l1.07.36,1.15.41,1.27.48c1.05.39,2.06.8,3.08,1.31.23.56.55,1.06.87,1.6l.44.72c.07.52-.24,1.03-.58,1.44ZM74.76,36.87c.13.63.14,1.26.04,1.9-.24,1.54-1.45,2.32-2.88,2.76-.78.24-1.54.4-2.34.54l-2.6.45-3.34.59c-.77.14-1.53.21-2.31.22-.42,0-.82-.02-1.24-.13-.24-.77-.65-1.44-1.14-2.07l.16-1.23c.29-1.6.71-3.14,1.3-4.65.42-1.08.95-2.06,1.55-3.04.64-1.04,1.46-1.92,2.51-2.56,1.01-.62,2.17-.98,3.28-.49.53.24.95.62,1.29,1.09.25.35.43.71.62,1.09.38.76,1,1.62,1.67,2.12l1.58.99c.37.23.72.47,1.02.79.44.46.71,1.01.84,1.63Z"/>
      <text class="cls-2" transform="translate(33.9 138.4)"><tspan class="cls-7" x="0" y="0">W</tspan><tspan class="cls-8" x="17.18" y="0">OMEN</tspan><tspan class="cls-13" x="66.12" y="0">’</tspan><tspan class="cls-9" x="71.26" y="0">S H</tspan><tspan class="cls-10" x="99.82" y="0">E</tspan><tspan class="cls-8" x="109.69" y="0">A</tspan><tspan class="cls-4" x="121.84" y="0">L</tspan><tspan class="cls-8" x="129.55" y="0">TH </tspan><tspan class="cls-12" x="157.96" y="0">E</tspan><tspan class="cls-8" x="167.99" y="0">QUI</tspan><tspan class="cls-3" x="198.3" y="0">T</tspan><tspan class="cls-8" x="208.83" y="0">Y A</tspan><tspan class="cls-6" x="236.73" y="0">DV</tspan><tspan class="cls-8" x="260.25" y="0">O</tspan><tspan class="cls-5" x="272.95" y="0">C</tspan><tspan class="cls-10" x="284.03" y="0">A</tspan><tspan class="cls-5" x="295.98" y="0">C</tspan><tspan class="cls-8" x="307.05" y="0">Y &amp; IN</tspan><tspan class="cls-11" x="357.73" y="0">F</tspan><tspan class="cls-8" x="367.09" y="0">ORM</tspan><tspan class="cls-14" x="405.03" y="0">A</tspan><tspan class="cls-8" x="416.09" y="0">TI</tspan><tspan class="cls-10" x="431.96" y="0">C</tspan><tspan class="cls-8" x="443.06" y="0">S</tspan></text>
    </g>
  </g>
</svg>